<svg xmlns="http://www.w3.org/2000/svg" viewBox="0 0 512 512">
  <defs>
    <linearGradient id="bg" x1="0%" y1="0%" x2="100%" y2="100%">
      <stop offset="0%" style="stop-color:#1f1f1f"/>
      <stop offset="100%" style="stop-color:#0a0a0a"/>
    </linearGradient>
    <linearGradient id="silver" x1="0%" y1="0%" x2="0%" y2="100%">
      <stop offset="0%" style="stop-color:#f5f5f5"/>
      <stop offset="50%" style="stop-color:#d4d4d4"/>
      <stop offset="100%" style="stop-color:#f0f0f0"/>
    </linearGradient>
  </defs>
  
  <!-- Background -->
  <rect width="512" height="512" rx="102" fill="url(#bg)"/>
  
  <!-- Subtle border -->
  <rect x="8" y="8" width="496" height="496" rx="96" fill="none" stroke="#333" stroke-width="1"/>
  
  <!-- Classic I with serifs -->
  <path d="
    M176 120 
    h160 
    q12 0 12 12 
    v36 
    q0 12 -12 12 
    h-40 
    v144
    h40 
    q12 0 12 12 
    v36 
    q0 12 -12 12 
    h-160 
    q-12 0 -12 -12 
    v-36 
    q0 -12 12 -12 
    h40 
    v-144
    h-40 
    q-12 0 -12 -12 
    v-36 
    q0 -12 12 -12 
    z
  " fill="url(#silver)"/>
</svg>
